<?xml version="1.0" encoding="UTF-8" standalone="no"?>
<!-- Created with Inkscape (http://www.inkscape.org/) -->

<svg
   xmlns:dc="http://purl.org/dc/elements/1.1/"
   xmlns:cc="http://creativecommons.org/ns#"
   xmlns:rdf="http://www.w3.org/1999/02/22-rdf-syntax-ns#"
   xmlns:svg="http://www.w3.org/2000/svg"
   xmlns="http://www.w3.org/2000/svg"
   xmlns:sodipodi="http://sodipodi.sourceforge.net/DTD/sodipodi-0.dtd"
   xmlns:inkscape="http://www.inkscape.org/namespaces/inkscape"
   version="1.1"
   width="150"
   height="150"
   id="svg2"
   xml:space="preserve"
   inkscape:version="0.48.4 r9939"
   sodipodi:docname="4-2-1-columns-prvaci-layouttpl.svg"><sodipodi:namedview
     pagecolor="#ffffff"
     bordercolor="#666666"
     borderopacity="1"
     objecttolerance="10"
     gridtolerance="10"
     guidetolerance="10"
     inkscape:pageopacity="0"
     inkscape:pageshadow="2"
     inkscape:window-width="1920"
     inkscape:window-height="1036"
     id="namedview237"
     showgrid="false"
     showguides="true"
     inkscape:guide-bbox="true"
     inkscape:zoom="2.8284271"
     inkscape:cx="-39.846641"
     inkscape:cy="64.448049"
     inkscape:window-x="1438"
     inkscape:window-y="-3"
     inkscape:window-maximized="1"
     inkscape:current-layer="svg2"><sodipodi:guide
       position="0,0"
       orientation="0,150"
       id="guide3245" /><sodipodi:guide
       position="150,0"
       orientation="-150,0"
       id="guide3247" /><sodipodi:guide
       position="150,150"
       orientation="0,-150"
       id="guide3249" /><sodipodi:guide
       position="0,150"
       orientation="150,0"
       id="guide3251" /><sodipodi:guide
       orientation="1,0"
       position="100,57"
       id="guide3259" /><sodipodi:guide
       position="0,0"
       orientation="0,150"
       id="guide3221" /><sodipodi:guide
       position="150,0"
       orientation="-150,0"
       id="guide3223" /><sodipodi:guide
       position="150,150"
       orientation="0,-150"
       id="guide3225" /><sodipodi:guide
       position="0,150"
       orientation="150,0"
       id="guide3227" /><sodipodi:guide
       position="0,0"
       orientation="0,150"
       id="guide3229" /><sodipodi:guide
       position="150,0"
       orientation="-150,0"
       id="guide3231" /><sodipodi:guide
       position="150,150"
       orientation="0,-150"
       id="guide3233" /><sodipodi:guide
       position="0,150"
       orientation="150,0"
       id="guide3235" /></sodipodi:namedview><metadata
     id="metadata8"><rdf:RDF><cc:Work
         rdf:about=""><dc:format>image/svg+xml</dc:format><dc:type
           rdf:resource="http://purl.org/dc/dcmitype/StillImage" /><dc:title /></cc:Work></rdf:RDF></metadata><defs
     id="defs6"><clipPath
       id="clipPath42"><path
         d="M 0,120 120,120 120,0 0,0 0,120 z"
         id="path44" /></clipPath><clipPath
       id="clipPath66"><path
         d="M 0,120 120,120 120,0 0,0 0,120 z"
         id="path68" /></clipPath><clipPath
       id="clipPath90"><path
         d="M 0,120 120,120 120,0 0,0 0,120 z"
         id="path92" /></clipPath><clipPath
       id="clipPath114"><path
         d="M 0,120 120,120 120,0 0,0 0,120 z"
         id="path116" /></clipPath><clipPath
       id="clipPath140"><path
         d="M 0,120 120,120 120,0 0,0 0,120 z"
         id="path142" /></clipPath><clipPath
       id="clipPath158"><path
         d="M 0,120 120,120 120,0 0,0 0,120 z"
         id="path160" /></clipPath><clipPath
       id="clipPath178"><path
         d="M 0,120 120,120 120,0 0,0 0,120 z"
         id="path180" /></clipPath><clipPath
       id="clipPath200"><path
         d="M 0,120 120,120 120,0 0,0 0,120 z"
         id="path202" /></clipPath><clipPath
       id="clipPath220"><path
         d="M 0,120 120,120 120,0 0,0 0,120 z"
         id="path222" /></clipPath><clipPath
       id="clipPath228"><path
         d="m 18.0479,102.8 54.0009,0 0,-54.0002 -54.0009,0 0,54.0002 z"
         id="path230" /></clipPath><clipPath
       id="clipPath244"><path
         d="M 0,120 120,120 120,0 0,0 0,120 z"
         id="path246" /></clipPath><clipPath
       id="clipPath252"><path
         d="m 32.4478,87.1992 54.0014,0 0,-54 -54.0014,0 0,54 z"
         id="path254" /></clipPath><clipPath
       id="clipPath268"><path
         d="M 0,120 120,120 120,0 0,0 0,120 z"
         id="path270" /></clipPath><clipPath
       id="clipPath276"><path
         d="m 48.4487,71.1997 53.9983,0 0,-53.9995 -53.9983,0 0,53.9995 z"
         id="path278" /></clipPath><clipPath
       id="clipPath308"><path
         d="M 0,120 120,120 120,0 0,0 0,120 z"
         id="path310" /></clipPath><clipPath
       id="clipPath346"><path
         d="M 0,120 120,120 120,0 0,0 0,120 z"
         id="path348" /></clipPath><clipPath
       id="clipPath380"><path
         d="M 0,120 120,120 120,0 0,0 0,120 z"
         id="path382" /></clipPath><clipPath
       id="clipPath396"><path
         d="M 0,120 120,120 120,0 0,0 0,120 z"
         id="path398" /></clipPath><clipPath
       id="clipPath422"><path
         d="M 0,120 120,120 120,0 0,0 0,120 z"
         id="path424" /></clipPath><clipPath
       id="clipPath456"><path
         d="M 0,120 120,120 120,0 0,0 0,120 z"
         id="path458" /></clipPath></defs><g
     id="g4052"
     inkscape:export-filename="/home/vega/Development/workspaceLiferay/1-2-1-columns-prvaci-ii-layouttpl/src/main/webapp/1_2_1_columns_prvaci_ii.png"
     inkscape:export-xdpi="72.599998"
     inkscape:export-ydpi="72.599998"><g
       id="g10"
       transform="matrix(1.25,0,0,-1.25,0,150)"><path
         style="fill:#ffffff;fill-opacity:1;fill-rule:nonzero;stroke:none"
         id="path12"
         d="m 0.248,0 119.751,0 0,120 -119.751,0 0,-120 z" /><path
         style="fill:#1daefc;fill-opacity:1;fill-rule:nonzero;stroke:none"
         id="path14"
         d="M 0,0 120,0 120,120 0,120 0,0 z M 6,114 114,114 114,6 6,6 6,114 z" /><path
         style="fill:#ffffff;fill-opacity:1;fill-rule:nonzero;stroke:none"
         id="path16"
         d="m 0.248,0 119.751,0 0,120 -119.751,0 0,-120 z" /><path
         style="fill:#1daefc;fill-opacity:1;fill-rule:nonzero;stroke:none"
         id="path18"
         d="M 0,0 120,0 120,120 0,120 0,0 z M 6,114 114,114 114,6 6,6 6,114 z" /><path
         style="fill:#ffffff;fill-opacity:1;fill-rule:nonzero;stroke:none"
         id="path20"
         d="m 0.248,0 119.751,0 0,120 -119.751,0 0,-120 z" /><path
         style="fill:#1daefc;fill-opacity:1;fill-rule:nonzero;stroke:none"
         id="path22"
         d="M 0,0 120,0 120,120 0,120 0,0 z M 6,114 114,114 114,6 6,6 6,114 z" /><path
         style="fill:#ffffff;fill-opacity:1;fill-rule:nonzero;stroke:none"
         id="path24"
         d="M 0.136,0 120,0 l 0,120 -119.864,0 0,-120 z" /><path
         style="fill:#e5f5fc;fill-opacity:1;fill-rule:nonzero;stroke:none"
         id="path26"
         d="m 0.248,30 59.684,0 0,60 -59.684,0 0,-60 z" /><path
         style="fill:#ffffff;fill-opacity:1;fill-rule:nonzero;stroke:none"
         id="path28"
         d="m 0.136,90.518 119.864,0 0,29.481 -119.864,0 0,-29.481 z" /><path
         style="fill:#e5f5fc;fill-opacity:1;fill-rule:nonzero;stroke:none"
         id="path30"
         d="m 0.248,90.518 119.561,0 0,29.481 -119.561,0 0,-29.481 z" /><path
         style="fill:#ffffff;fill-opacity:1;fill-rule:nonzero;stroke:none"
         id="path32"
         d="m 0,0 119.865,0 0,29.477 L 0,29.477 0,0 z" /><g
         id="g34"
         transform="translate(59.9326,90.5186)"><path
           style="fill:none;stroke:#1daefc;stroke-width:6;stroke-linecap:butt;stroke-linejoin:miter;stroke-miterlimit:10;stroke-opacity:1;stroke-dasharray:none"
           id="path36"
           d="M 0,0 -0.001,-61.042" /></g><g
         id="g38"><g
           id="g40"
           clip-path="url(#clipPath42)"><g
             id="g46"
             transform="translate(0.0562,90.5186)"><path
               style="fill:none;stroke:#1daefc;stroke-width:6;stroke-linecap:butt;stroke-linejoin:miter;stroke-miterlimit:10;stroke-opacity:1;stroke-dasharray:none"
               id="path48"
               d="M 0,0 119.752,0" /></g><g
             id="g50"
             transform="translate(0.0562,29.4766)"><path
               style="fill:none;stroke:#1daefc;stroke-width:6;stroke-linecap:butt;stroke-linejoin:miter;stroke-miterlimit:10;stroke-opacity:1;stroke-dasharray:none"
               id="path52"
               d="M 0,0 119.752,0" /></g></g></g><path
         style="fill:#1daefc;fill-opacity:1;fill-rule:nonzero;stroke:none"
         id="path54"
         d="M 0,0 120,0 120,120 0,120 0,0 z M 6,114 114,114 114,6 6,6 6,114 z" /><path
         style="fill:#ffffff;fill-opacity:1;fill-rule:nonzero;stroke:none"
         id="path56"
         d="M 0,0 120,0 120,120 0,120 0,0 z" /><path
         style="fill:#f0ffff;fill-opacity:1;fill-rule:nonzero;stroke:none"
         id="path58"
         d="M 35.999,0 120,0 l 0,120 -84.001,0 0,-120 z" /><path
         style="fill:#ffffff;fill-opacity:1;fill-rule:nonzero;stroke:none"
         id="path60"
         d="m 0,90.518 120,0 0,29.481 -120,0 0,-29.481 z" /><g
         id="g62"><g
           id="g64"
           clip-path="url(#clipPath66)"><g
             id="g70"
             transform="translate(35.9995,90.5186)"><path
               style="fill:none;stroke:#1daefc;stroke-width:6;stroke-linecap:butt;stroke-linejoin:miter;stroke-miterlimit:10;stroke-opacity:1;stroke-dasharray:none"
               id="path72"
               d="M 0,0 -0.001,-90.519" /></g><g
             id="g74"
             transform="translate(0.0562,90.5186)"><path
               style="fill:none;stroke:#1daefc;stroke-width:6;stroke-linecap:butt;stroke-linejoin:miter;stroke-miterlimit:10;stroke-opacity:1;stroke-dasharray:none"
               id="path76"
               d="M 0,0 119.752,0" /></g></g></g><path
         style="fill:#1daefc;fill-opacity:1;fill-rule:nonzero;stroke:none"
         id="path78"
         d="M 0,0 120,0 120,120 0,120 0,0 z M 6,114 114,114 114,6 6,6 6,114 z" /><path
         style="fill:#ffffff;fill-opacity:1;fill-rule:nonzero;stroke:none"
         id="path80"
         d="M 0,0 120,0 120,120 0,120 0,0 z" /><path
         style="fill:#f0ffff;fill-opacity:1;fill-rule:nonzero;stroke:none"
         id="path82"
         d="m 0,0 84.001,0 0,120 L 0,120 0,0 z" /><path
         style="fill:#ffffff;fill-opacity:1;fill-rule:nonzero;stroke:none"
         id="path84"
         d="m 0,90.518 120,0 0,29.481 -120,0 0,-29.481 z" /><g
         id="g86"><g
           id="g88"
           clip-path="url(#clipPath90)"><g
             id="g94"
             transform="translate(84.001,90.5186)"><path
               style="fill:none;stroke:#1daefc;stroke-width:6;stroke-linecap:butt;stroke-linejoin:miter;stroke-miterlimit:10;stroke-opacity:1;stroke-dasharray:none"
               id="path96"
               d="M 0,0 0,-90.519" /></g><g
             id="g98"
             transform="translate(0.0562,90.5186)"><path
               style="fill:none;stroke:#1daefc;stroke-width:6;stroke-linecap:butt;stroke-linejoin:miter;stroke-miterlimit:10;stroke-opacity:1;stroke-dasharray:none"
               id="path100"
               d="M 0,0 119.752,0" /></g></g></g><path
         style="fill:#1daefc;fill-opacity:1;fill-rule:nonzero;stroke:none"
         id="path102"
         d="M 0,0 120,0 120,120 0,120 0,0 z M 6,114 114,114 114,6 6,6 6,114 z" /><path
         style="fill:#e5f5fc;fill-opacity:1;fill-rule:nonzero;stroke:none"
         id="path104"
         d="M 0,0 120,0 120,120 0,120 0,0 z" /><path
         style="fill:#ffffff;fill-opacity:1;fill-rule:nonzero;stroke:none"
         id="path106"
         d="m 0,60 83.001,0 0,59.999 L 0,119.999 0,60 z" /><path
         style="fill:#ffffff;fill-opacity:1;fill-rule:nonzero;stroke:none"
         id="path108"
         d="M 37.001,0 120,0 l 0,60 -82.999,0 0,-60 z" /><g
         id="g110"><g
           id="g112"
           clip-path="url(#clipPath114)"><g
             id="g118"
             transform="translate(37.001,0)"><path
               style="fill:none;stroke:#1daefc;stroke-width:6;stroke-linecap:butt;stroke-linejoin:miter;stroke-miterlimit:10;stroke-opacity:1;stroke-dasharray:none"
               id="path120"
               d="M 0,0 0,60" /></g><g
             id="g122"
             transform="translate(83.001,60)"><path
               style="fill:none;stroke:#1daefc;stroke-width:6;stroke-linecap:butt;stroke-linejoin:miter;stroke-miterlimit:10;stroke-opacity:1;stroke-dasharray:none"
               id="path124"
               d="M 0,0 0,59.752" /></g><g
             id="g126"
             transform="translate(0.248,60)"><path
               style="fill:none;stroke:#1daefc;stroke-width:6;stroke-linecap:butt;stroke-linejoin:miter;stroke-miterlimit:10;stroke-opacity:1;stroke-dasharray:none"
               id="path128"
               d="M 0,0 119.752,0" /></g></g></g><path
         style="fill:#1daefc;fill-opacity:1;fill-rule:nonzero;stroke:none"
         id="path130"
         d="M 0,0 120,0 120,120 0,120 0,0 z M 6,114 114,114 114,6 6,6 6,114 z" /><path
         style="fill:#ffffff;fill-opacity:1;fill-rule:nonzero;stroke:none"
         id="path132"
         d="M 0,0 120,0 120,120 0,120 0,0 z" /><path
         style="fill:#e5f5fc;fill-opacity:1;fill-rule:nonzero;stroke:none"
         id="path134"
         d="M 0,0 60,0 60,120 0,120 0,0 z" /><g
         id="g136"><g
           id="g138"
           clip-path="url(#clipPath140)"><g
             id="g144"
             transform="translate(60,0)"><path
               style="fill:none;stroke:#1daefc;stroke-width:6;stroke-linecap:butt;stroke-linejoin:miter;stroke-miterlimit:10;stroke-opacity:1;stroke-dasharray:none"
               id="path146"
               d="M 0,0 0,119.752" /></g></g></g><path
         style="fill:#1daefc;fill-opacity:1;fill-rule:nonzero;stroke:none"
         id="path148"
         d="M 0,0 120,0 120,120 0,120 0,0 z M 6,114 114,114 114,6 6,6 6,114 z" /><path
         style="fill:#e5f5fc;fill-opacity:1;fill-rule:nonzero;stroke:none"
         id="path150"
         d="M 0.001,0 120,0 l 0,120 -119.999,0 0,-120 z" /><path
         style="fill:#ffffff;fill-opacity:1;fill-rule:nonzero;stroke:none"
         id="path152"
         d="M 36.001,0 120,0 l 0,120 -83.999,0 0,-120 z" /><g
         id="g154"><g
           id="g156"
           clip-path="url(#clipPath158)"><g
             id="g162"
             transform="translate(36.001,0.124)"><path
               style="fill:none;stroke:#1daefc;stroke-width:6;stroke-linecap:butt;stroke-linejoin:miter;stroke-miterlimit:10;stroke-opacity:1;stroke-dasharray:none"
               id="path164"
               d="M 0,0 0,119.752" /></g></g></g><path
         style="fill:#1daefc;fill-opacity:1;fill-rule:nonzero;stroke:none"
         id="path166"
         d="M 0,0 120,0 120,120 0,120 0,0 z M 6,114 114,114 114,6 6,6 6,114 z" /><path
         style="fill:#e5f5fc;fill-opacity:1;fill-rule:nonzero;stroke:none"
         id="path168"
         d="M 0.001,0 120,0 l 0,120 -119.999,0 0,-120 z" /><g
         id="g170"
         transform="translate(9e-4,119.9997)"><path
           style="fill:#ffffff;fill-opacity:1;fill-rule:nonzero;stroke:none"
           id="path172"
           d="m 0,0 0,-120 83.998,0 L 83.999,0 0,0 z" /></g><g
         id="g174"><g
           id="g176"
           clip-path="url(#clipPath178)"><g
             id="g182"
             transform="translate(84,119.876)"><path
               style="fill:none;stroke:#1daefc;stroke-width:6;stroke-linecap:butt;stroke-linejoin:miter;stroke-miterlimit:10;stroke-opacity:1;stroke-dasharray:none"
               id="path184"
               d="M 0,0 -0.001,-119.752" /></g></g></g><path
         style="fill:#1daefc;fill-opacity:1;fill-rule:nonzero;stroke:none"
         id="path186"
         d="M 0,0 120,0 120,120 0,120 0,0 z M 6,114 114,114 114,6 6,6 6,114 z" /><path
         style="fill:#e5f5fc;fill-opacity:1;fill-rule:nonzero;stroke:none"
         id="path188"
         d="m 0.5,0.5 119,0 0,119 -119,0 0,-119 z" /><path
         style="fill:#1daefc;fill-opacity:1;fill-rule:nonzero;stroke:none"
         id="path190"
         d="M 0,0 120,0 120,120 0,120 0,0 z M 1,119 119,119 119,1 1,1 1,119 z" /><path
         style="fill:#ffffff;fill-opacity:1;fill-rule:nonzero;stroke:none"
         id="path192"
         d="m 40.499,0.5 39.001,0 0,119 -39.001,0 0,-119 z" /><path
         style="fill:#1daefc;fill-opacity:1;fill-rule:nonzero;stroke:none"
         id="path194"
         d="m 40,0 40.001,0 0,120 L 40,120 40,0 z M 40.999,119 79,119 79,1 40.999,1 l 0,118 z" /><g
         id="g196"><g
           id="g198"
           clip-path="url(#clipPath200)"><g
             id="g204"
             transform="translate(80,0)"><path
               style="fill:none;stroke:#1daefc;stroke-width:6;stroke-linecap:butt;stroke-linejoin:miter;stroke-miterlimit:10;stroke-opacity:1;stroke-dasharray:none"
               id="path206"
               d="M 0,0 0,119.752" /></g><g
             id="g208"
             transform="translate(39.9995,0)"><path
               style="fill:none;stroke:#1daefc;stroke-width:6;stroke-linecap:butt;stroke-linejoin:miter;stroke-miterlimit:10;stroke-opacity:1;stroke-dasharray:none"
               id="path210"
               d="M 0,0 0,119.752" /></g></g></g><path
         style="fill:#1daefc;fill-opacity:1;fill-rule:nonzero;stroke:none"
         id="path212"
         d="M 0,0 120,0 120,120 0,120 0,0 z M 6,114 114,114 114,6 6,6 6,114 z" /><path
         style="fill:#ffffff;fill-opacity:1;fill-rule:nonzero;stroke:none"
         id="path214"
         d="m 0.248,0 119.751,0 0,120 -119.751,0 0,-120 z" /><g
         id="g216"><g
           id="g218"
           clip-path="url(#clipPath220)"><g
             id="g224"><g
               id="g226" /><g
               id="g232"><g
                 style="opacity:0.60000598"
                 id="g234"
                 clip-path="url(#clipPath228)"><path
                   style="fill:#ffffff;fill-opacity:1;fill-rule:nonzero;stroke:none"
                   id="path236"
                   d="m 18.048,102.8 54.001,0 0,-54 -54.001,0 0,54 z" /></g></g></g></g></g><path
         style="fill:#1daefc;fill-opacity:1;fill-rule:nonzero;stroke:none"
         id="path238"
         d="m 75.049,105.8 -60.001,0 0,-60 60.001,0 0,60 z m -6,-54 -48.001,0 0,48 48.001,0 0,-48 z" /><g
         id="g240"><g
           id="g242"
           clip-path="url(#clipPath244)"><g
             id="g248"><g
               id="g250" /><g
               id="g256"><g
                 style="opacity:0.60000598"
                 id="g258"
                 clip-path="url(#clipPath252)"><path
                   style="fill:#f0ffff;fill-opacity:1;fill-rule:nonzero;stroke:none"
                   id="path260"
                   d="m 32.448,87.199 54.001,0 0,-54 -54.001,0 0,54 z" /></g></g></g></g></g><path
         style="fill:#1daefc;fill-opacity:1;fill-rule:nonzero;stroke:none"
         id="path262"
         d="m 89.449,90.199 -60.001,0 0,-60 60.001,0 0,60 z m -6,-54 -48.001,0 0,48 48.001,0 0,-48 z" /><g
         id="g264"><g
           id="g266"
           clip-path="url(#clipPath268)"><g
             id="g272"><g
               id="g274" /><g
               id="g280"><g
                 style="opacity:0.60000598"
                 id="g282"
                 clip-path="url(#clipPath276)"><path
                   style="fill:#ffffff;fill-opacity:1;fill-rule:nonzero;stroke:none"
                   id="path284"
                   d="m 48.449,71.2 53.999,0 0,-54 -53.999,0 0,54 z" /></g></g></g></g></g><path
         style="fill:#1daefc;fill-opacity:1;fill-rule:nonzero;stroke:none"
         id="path286"
         d="m 105.447,74.2 -59.999,0 0,-60 59.999,0 0,60 z m -6,-54 -47.999,0 0,48 47.999,0 0,-48 z" /><path
         style="fill:#1daefc;fill-opacity:1;fill-rule:nonzero;stroke:none"
         id="path288"
         d="M 0,0 120,0 120,120 0,120 0,0 z M 6,114 114,114 114,6 6,6 6,114 z" /><path
         style="fill:#ffffff;fill-opacity:1;fill-rule:nonzero;stroke:none"
         id="path290"
         d="M 0.136,0 120,0 l 0,120 -119.864,0 0,-120 z" /><path
         style="fill:#e5f5fc;fill-opacity:1;fill-rule:nonzero;stroke:none"
         id="path292"
         d="m 0.136,32.449 82.865,0 0,59.999 -82.865,0 0,-59.999 z" /><path
         style="fill:#ffffff;fill-opacity:1;fill-rule:nonzero;stroke:none"
         id="path294"
         d="m 0.136,90.518 119.864,0 0,29.481 -119.864,0 0,-29.481 z" /><path
         style="fill:#e5f5fc;fill-opacity:1;fill-rule:nonzero;stroke:none"
         id="path296"
         d="m 0.248,90.518 119.561,0 0,29.481 -119.561,0 0,-29.481 z" /><path
         style="fill:#ffffff;fill-opacity:1;fill-rule:nonzero;stroke:none"
         id="path298"
         d="m 0,0 119.865,0 0,29.477 L 0,29.477 0,0 z" /><g
         id="g300"
         transform="translate(83.001,90.5186)"><path
           style="fill:none;stroke:#1daefc;stroke-width:6;stroke-linecap:butt;stroke-linejoin:miter;stroke-miterlimit:10;stroke-opacity:1;stroke-dasharray:none"
           id="path302"
           d="M 0,0 -0.001,-61.042" /></g><g
         id="g304"><g
           id="g306"
           clip-path="url(#clipPath308)"><g
             id="g312"
             transform="translate(0.0562,90.5186)"><path
               style="fill:none;stroke:#1daefc;stroke-width:6;stroke-linecap:butt;stroke-linejoin:miter;stroke-miterlimit:10;stroke-opacity:1;stroke-dasharray:none"
               id="path314"
               d="M 0,0 119.752,0" /></g><g
             id="g316"
             transform="translate(0.0562,29.4766)"><path
               style="fill:none;stroke:#1daefc;stroke-width:6;stroke-linecap:butt;stroke-linejoin:miter;stroke-miterlimit:10;stroke-opacity:1;stroke-dasharray:none"
               id="path318"
               d="M 0,0 119.752,0" /></g></g></g><path
         style="fill:#1daefc;fill-opacity:1;fill-rule:nonzero;stroke:none"
         id="path320"
         d="M 0,0 120,0 120,120 0,120 0,0 z M 6,114 114,114 114,6 6,6 6,114 z" /><path
         style="fill:#ffffff;fill-opacity:1;fill-rule:nonzero;stroke:none"
         id="path322"
         d="M 0.136,0 120,0 l 0,120 -119.864,0 0,-120 z" /><path
         style="fill:#e5f5fc;fill-opacity:1;fill-rule:nonzero;stroke:none"
         id="path324"
         d="m 0.136,32.449 39.863,0 0,59.999 -39.863,0 0,-59.999 z" /><path
         style="fill:#e5f5fc;fill-opacity:1;fill-rule:nonzero;stroke:none"
         id="path326"
         d="m 79.998,32.449 39.863,0 0,59.999 -39.863,0 0,-59.999 z" /><path
         style="fill:#ffffff;fill-opacity:1;fill-rule:nonzero;stroke:none"
         id="path328"
         d="m 0.136,90.518 119.864,0 0,29.481 -119.864,0 0,-29.481 z" /><path
         style="fill:#e5f5fc;fill-opacity:1;fill-rule:nonzero;stroke:none"
         id="path330"
         d="m 0.248,90.518 119.561,0 0,29.481 -119.561,0 0,-29.481 z" /><path
         style="fill:#ffffff;fill-opacity:1;fill-rule:nonzero;stroke:none"
         id="path332"
         d="m 0,0 119.865,0 0,29.477 L 0,29.477 0,0 z" /><g
         id="g334"
         transform="translate(80,90.5186)"><path
           style="fill:none;stroke:#1daefc;stroke-width:6;stroke-linecap:butt;stroke-linejoin:miter;stroke-miterlimit:10;stroke-opacity:1;stroke-dasharray:none"
           id="path336"
           d="M 0,0 -0.001,-61.042" /></g><g
         id="g338"
         transform="translate(40,90.5186)"><path
           style="fill:none;stroke:#1daefc;stroke-width:6;stroke-linecap:butt;stroke-linejoin:miter;stroke-miterlimit:10;stroke-opacity:1;stroke-dasharray:none"
           id="path340"
           d="M 0,0 -0.001,-61.042" /></g><g
         id="g342"><g
           id="g344"
           clip-path="url(#clipPath346)"><g
             id="g350"
             transform="translate(0.0562,90.5186)"><path
               style="fill:none;stroke:#1daefc;stroke-width:6;stroke-linecap:butt;stroke-linejoin:miter;stroke-miterlimit:10;stroke-opacity:1;stroke-dasharray:none"
               id="path352"
               d="M 0,0 119.752,0" /></g><g
             id="g354"
             transform="translate(0.0562,29.4766)"><path
               style="fill:none;stroke:#1daefc;stroke-width:6;stroke-linecap:butt;stroke-linejoin:miter;stroke-miterlimit:10;stroke-opacity:1;stroke-dasharray:none"
               id="path356"
               d="M 0,0 119.752,0" /></g></g></g><path
         style="fill:#1daefc;fill-opacity:1;fill-rule:nonzero;stroke:none"
         id="path358"
         d="M 0,0 120,0 120,120 0,120 0,0 z M 6,114 114,114 114,6 6,6 6,114 z" /><path
         style="fill:#ffffff;fill-opacity:1;fill-rule:nonzero;stroke:none"
         id="path360"
         d="M 0.136,0 120,0 l 0,120 -119.864,0 0,-120 z" /><path
         style="fill:#e5f5fc;fill-opacity:1;fill-rule:nonzero;stroke:none"
         id="path362"
         d="m 0.136,32.449 39.863,0 0,59.999 -39.863,0 0,-59.999 z" /><path
         style="fill:#e5f5fc;fill-opacity:1;fill-rule:nonzero;stroke:none"
         id="path364"
         d="m 79.998,32.449 39.863,0 0,59.999 -39.863,0 0,-59.999 z" /><path
         style="fill:#ffffff;fill-opacity:1;fill-rule:nonzero;stroke:none"
         id="path366"
         d="m 0.136,90.518 119.864,0 0,29.481 -119.864,0 0,-29.481 z" /><path
         style="fill:#e5f5fc;fill-opacity:1;fill-rule:nonzero;stroke:none"
         id="path368"
         d="m 0.248,90.518 119.561,0 0,29.481 -119.561,0 0,-29.481 z" /><path
         style="fill:#ffffff;fill-opacity:1;fill-rule:nonzero;stroke:none"
         id="path370"
         d="m 0,0 119.865,0 0,29.477 L 0,29.477 0,0 z" /><g
         id="g372"
         transform="translate(80,90.5186)"><path
           style="fill:none;stroke:#1daefc;stroke-width:6;stroke-linecap:butt;stroke-linejoin:miter;stroke-miterlimit:10;stroke-opacity:1;stroke-dasharray:none"
           id="path374"
           d="M 0,0 -0.001,-61.042" /></g><g
         id="g376"><g
           id="g378"
           clip-path="url(#clipPath380)"><g
             id="g384"
             transform="translate(60.1245,30)"><path
               style="fill:none;stroke:#1daefc;stroke-width:6;stroke-linecap:butt;stroke-linejoin:miter;stroke-miterlimit:10;stroke-opacity:1;stroke-dasharray:none"
               id="path386"
               d="M 0,0 -0.001,-30" /></g></g></g><g
         id="g388"
         transform="translate(40,90.5186)"><path
           style="fill:none;stroke:#1daefc;stroke-width:6;stroke-linecap:butt;stroke-linejoin:miter;stroke-miterlimit:10;stroke-opacity:1;stroke-dasharray:none"
           id="path390"
           d="M 0,0 -0.001,-61.042" /></g><g
         id="g392"><g
           id="g394"
           clip-path="url(#clipPath396)"><g
             id="g400"
             transform="translate(0.0562,90.5186)"><path
               style="fill:none;stroke:#1daefc;stroke-width:6;stroke-linecap:butt;stroke-linejoin:miter;stroke-miterlimit:10;stroke-opacity:1;stroke-dasharray:none"
               id="path402"
               d="M 0,0 119.752,0" /></g><g
             id="g404"
             transform="translate(0.0562,29.4766)"><path
               style="fill:none;stroke:#1daefc;stroke-width:6;stroke-linecap:butt;stroke-linejoin:miter;stroke-miterlimit:10;stroke-opacity:1;stroke-dasharray:none"
               id="path406"
               d="M 0,0 119.752,0" /></g></g></g><path
         style="fill:#1daefc;fill-opacity:1;fill-rule:nonzero;stroke:none"
         id="path408"
         d="M 0,0 120,0 120,120 0,120 0,0 z M 6,114 114,114 114,6 6,6 6,114 z" /><path
         style="fill:#ffffff;fill-opacity:1;fill-rule:nonzero;stroke:none"
         id="path410"
         d="M 0.136,0 120,0 l 0,120 -119.864,0 0,-120 z" /><path
         style="fill:#e5f5fc;fill-opacity:1;fill-rule:nonzero;stroke:none"
         id="path412"
         d="m 0.136,32.449 119.673,0 0,59.999 -119.673,0 0,-59.999 z" /><path
         style="fill:#ffffff;fill-opacity:1;fill-rule:nonzero;stroke:none"
         id="path414"
         d="m 0.136,90.518 119.864,0 0,29.481 -119.864,0 0,-29.481 z" /><path
         style="fill:#ffffff;fill-opacity:1;fill-rule:nonzero;stroke:none"
         id="path416"
         d="m 0,0 119.865,0 0,29.477 L 0,29.477 0,0 z" /><g
         id="g418"><g
           id="g420"
           clip-path="url(#clipPath422)"><g
             id="g426"
             transform="translate(60.1245,30)"><path
               style="fill:none;stroke:#1daefc;stroke-width:6;stroke-linecap:butt;stroke-linejoin:miter;stroke-miterlimit:10;stroke-opacity:1;stroke-dasharray:none"
               id="path428"
               d="M 0,0 -0.001,-30" /></g><g
             id="g430"
             transform="translate(60.1245,119.752)"><path
               style="fill:none;stroke:#1daefc;stroke-width:6;stroke-linecap:butt;stroke-linejoin:miter;stroke-miterlimit:10;stroke-opacity:1;stroke-dasharray:none"
               id="path432"
               d="M 0,0 -0.001,-30" /></g><g
             id="g434"
             transform="translate(0.0562,90.5186)"><path
               style="fill:none;stroke:#1daefc;stroke-width:6;stroke-linecap:butt;stroke-linejoin:miter;stroke-miterlimit:10;stroke-opacity:1;stroke-dasharray:none"
               id="path436"
               d="M 0,0 119.752,0" /></g><g
             id="g438"
             transform="translate(0.0562,29.4766)"><path
               style="fill:none;stroke:#1daefc;stroke-width:6;stroke-linecap:butt;stroke-linejoin:miter;stroke-miterlimit:10;stroke-opacity:1;stroke-dasharray:none"
               id="path440"
               d="M 0,0 119.752,0" /></g></g></g><path
         style="fill:#1daefc;fill-opacity:1;fill-rule:nonzero;stroke:none"
         id="path442"
         d="M 0,0 120,0 120,120 0,120 0,0 z M 6,114 114,114 114,6 6,6 6,114 z" /><path
         style="fill:#ffffff;fill-opacity:1;fill-rule:nonzero;stroke:none"
         id="path444"
         d="M 0.136,0 120,0 l 0,120 -119.864,0 0,-120 z" /><path
         style="fill:#e5f5fc;fill-opacity:1;fill-rule:nonzero;stroke:none"
         id="path448"
         d="m 2.7098644,0.124 117.1511356,0 0,40.539441 -117.1511356,0 0,-40.539441 z" /><path
         style="fill:#e5f5fc;fill-opacity:1;fill-rule:nonzero;stroke:none"
         id="path450"
         d="m 2.1036271,80.59322 117.6713729,0 0,39.40678 -117.6713729,0 0,-39.40678 z" /><path
         d="m 79.582264,39.58477 38.391516,0 0,39.40678 -38.391516,0 0,-39.40678 z"
         id="path4248"
         style="fill:#ccebff;fill-opacity:1;fill-rule:nonzero;stroke:none"
         inkscape:connector-curvature="0" /><g
         id="g452"><g
           id="g454"
           clip-path="url(#clipPath456)"><g
             id="g460"
             transform="translate(80,120.001)" /><g
             id="g464"
             transform="translate(79.999,30)" /><g
             id="g468"
             transform="translate(40,120)" /><g
             id="g472"
             transform="translate(0.0562,90.5186)"><path
               style="fill:none;stroke:#1daefc;stroke-width:6;stroke-linecap:butt;stroke-linejoin:miter;stroke-miterlimit:10;stroke-opacity:1;stroke-dasharray:none"
               id="path474"
               d="m -1.779661,-10.620317 121.531661,0" /><path
               sodipodi:nodetypes="cc"
               inkscape:connector-curvature="0"
               d="m 79.9438,-10.243805 0,-39.213619"
               id="path3243"
               style="fill:none;stroke:#1daefc;stroke-width:6;stroke-linecap:butt;stroke-linejoin:miter;stroke-miterlimit:10;stroke-opacity:1;stroke-dasharray:none" /></g><g
             id="g476"
             transform="translate(0.0562,29.4766)"><path
               style="fill:none;stroke:#1daefc;stroke-width:6;stroke-linecap:butt;stroke-linejoin:miter;stroke-miterlimit:10;stroke-opacity:1;stroke-dasharray:none"
               id="path478"
               d="m 0.76271186,10.331192 118.98928814,0" /></g></g></g><path
         style="fill:#1daefc;fill-opacity:1;fill-rule:nonzero;stroke:none"
         id="path480"
         d="m 0,0 120,0 0,120 -120,0 z M 6,114 114,114 114,6 6,6 z" /></g></g><path
     sodipodi:nodetypes="cc"
     inkscape:connector-curvature="0"
     d="m 39.375,3.6803607 0,46.7848433"
     id="path3243-1"
     style="fill:none;stroke:#1daefc;stroke-width:7.5;stroke-linecap:butt;stroke-linejoin:miter;stroke-miterlimit:10;stroke-opacity:1;stroke-dasharray:none" /><path
     sodipodi:nodetypes="cc"
     inkscape:connector-curvature="0"
     d="m 75,5.768723 0,44.181133"
     id="path3243-1-8"
     style="fill:none;stroke:#1daefc;stroke-width:7.5;stroke-linecap:butt;stroke-linejoin:miter;stroke-miterlimit:10;stroke-opacity:1;stroke-dasharray:none" /><path
     sodipodi:nodetypes="cc"
     inkscape:connector-curvature="0"
     d="m 110.625,3.3912262 0,46.2383238"
     id="path3243-1-8-1"
     style="fill:none;stroke:#1daefc;stroke-width:7.5;stroke-linecap:butt;stroke-linejoin:miter;stroke-miterlimit:10;stroke-opacity:1;stroke-dasharray:none" /></svg>